<svg xmlns="http://www.w3.org/2000/svg" width="496pt" height="496pt" viewBox="0 -24 496.01563 496"><path fill="#57a4ff" d="M216 176h272L312 8 200 112s24 16 16 64zm0 0"/><path fill="#004fac" d="M488 432h-48V184h48c3.28 0 6.23-2 7.44-5.04 1.22-3.03.46-6.5-1.92-8.72l-176-168c-3.05-2.94-7.87-2.98-10.96-.08l-103.12 95.2c-12.5-15.7-31.37-25-51.44-25.36-39.68 0-72 37.68-72 84-.04 9.5 1.37 18.93 4.16 28 4.74 16.46 14.47 31.05 27.84 41.76v25.84l-56.16 18.72c-19.03 6.3-31.86 24.1-31.84 44.16V432H8c-4.42 0-8 3.58-8 8s3.58 8 8 8h480c4.42 0 8-3.58 8-8s-3.58-8-8-8zM213.44 109.84l98.48-90.88L468 168H223.2c.5-3.98.78-8 .8-12 .06-15.9-3.93-31.58-11.6-45.52.37-.2.7-.4 1.04-.64zM101.04 184c-3.38-8.95-5.1-18.44-5.04-28 0-37.52 25.12-68 56-68s56 30.48 56 68c0 6.74-.83 13.46-2.48 20-.72 2.72-1.52 5.44-2.48 8-4.9 13.92-14.45 25.73-27.04 33.44-7.27 4.28-15.56 6.54-24 6.56-22.64 0-42.24-16.4-50.96-40zM40 314.48c-.03-13.18 8.44-24.87 20.96-28.96l61.6-20.56c3.24-1.13 5.42-4.17 5.44-7.6v-22.24c15.34 6.5 32.66 6.5 48 0v22.24c.02 3.43 2.2 6.47 5.44 7.6l61.6 20.56c12.52 4.1 21 15.78 20.96 28.96V432H40zM304 432h-24V314.48c0-13.43-5.85-26.18-16-34.96V264h40zm64 0h-48V264h48zm56 0h-40V256c0-4.42-3.58-8-8-8H256c-4.42 0-8 3.58-8 8v14.24l-56-18.64v-25.84c13.32-10.74 23.02-25.32 27.76-41.76H424zm0 0"/></svg>