<svg width="40" height="40" viewBox="0 0 40 40" fill="none" xmlns="http://www.w3.org/2000/svg">
<circle cx="20" cy="20" r="20" fill="#589AFF"/>
<path d="M12.3501 14C12.0847 14 11.8411 14.0818 11.6328 14.2163L19.339 21.118C19.7463 21.4829 20.2389 21.4829 20.6468 21.118L28.3671 14.2093C28.1596 14.0761 27.9138 14.0002 27.6498 14.0002L12.3501 14ZM11.0774 14.9375C11.0306 15.0782 11 15.2271 11 15.3845V24.6153C11 25.3823 11.602 26 12.3501 26H27.6499C28.3978 26 29 25.3825 29 24.6153V15.3845C29 15.2271 28.9694 15.0782 28.9226 14.9373L21.2373 21.8171C20.5214 22.4577 19.4642 22.4514 18.7483 21.8101L11.0774 14.9375Z" fill="white"/>
</svg>
