<svg width="40" height="40" viewBox="0 0 40 40" fill="none" xmlns="http://www.w3.org/2000/svg">
<circle cx="20" cy="20" r="20" fill="#589AFF"/>
<path d="M26.2244 28.9998C25.3964 28.9998 24.2332 28.7004 22.4915 27.7275C20.3735 26.54 18.7353 25.4437 16.6287 23.343C14.5977 21.3136 13.6093 19.9997 12.226 17.4831C10.6633 14.6415 10.9297 13.152 11.2274 12.5154C11.5821 11.7546 12.1055 11.2995 12.7821 10.8478C13.1664 10.5961 13.5731 10.3803 13.997 10.2032C14.0394 10.1849 14.0789 10.1676 14.1141 10.1519C14.3241 10.0573 14.6422 9.91436 15.0452 10.067C15.3141 10.168 15.5542 10.3745 15.9301 10.7456C16.7008 11.5056 17.7541 13.1983 18.1427 14.0295C18.4035 14.5898 18.5762 14.9596 18.5766 15.3744C18.5766 15.86 18.3323 16.2345 18.0358 16.6387C17.9802 16.7146 17.925 16.7871 17.8716 16.8575C17.5488 17.2816 17.4779 17.4042 17.5246 17.623C17.6192 18.0628 18.3246 19.3721 19.484 20.5286C20.6433 21.6852 21.915 22.3459 22.3566 22.4401C22.5848 22.4889 22.7099 22.4151 23.1477 22.0809C23.2105 22.0329 23.275 21.9833 23.3424 21.9337C23.7946 21.5974 24.1518 21.3595 24.626 21.3595H24.6286C25.0413 21.3595 25.3947 21.5384 25.9801 21.8336C26.7436 22.2187 28.4875 23.2582 29.2523 24.0297C29.6243 24.4046 29.8317 24.6438 29.9331 24.9122C30.0858 25.3164 29.942 25.6332 29.8483 25.8453C29.8326 25.8805 29.8152 25.9191 29.797 25.9619C29.6184 26.385 29.4013 26.7907 29.1484 27.174C28.6974 27.8484 28.2406 28.3705 27.4779 28.7254C27.0862 28.9107 26.6576 29.0045 26.2244 28.9998Z" fill="white"/>
</svg>
